<svg width="16" height="22" viewBox="0 0 16 22" fill="none" xmlns="http://www.w3.org/2000/svg">
<path d="M14 20.9998L6.26665 20.9998C5.71437 20.9998 5.26665 20.5521 5.26665 19.9998L5.26665 1.99985C5.26665 1.44756 5.71437 0.999845 6.26665 0.999845L14 0.999845C14.5523 0.999845 15 1.44756 15 1.99985L15 19.9998C15 20.5521 14.5523 20.9998 14 20.9998ZM0.999985 16.9998H1.13332L1.13332 19.9998H0.999985L0.999985 16.9998ZM0.999985 4.99985L0.999985 1.99985H1.13332L1.13332 4.99985H0.999985ZM0.999985 8.99985H1.13332L1.13332 12.9998H0.999985L0.999985 8.99985Z" stroke="black" stroke-width="2"/>
</svg>
